<svg id="Layer_1" data-name="Layer 1" xmlns="http://www.w3.org/2000/svg" xmlns:xlink="http://www.w3.org/1999/xlink" width="24" height="19.21" viewBox="0 0 24 19.21"><defs><style>.cls-1{fill:#afafaf;}.cls-2{fill:#e5e5e3;}.cls-3,.cls-4{opacity:0.15;}.cls-3,.cls-4,.cls-5,.cls-6{isolation:isolate;}.cls-3{fill:url(#linear-gradient);}.cls-4{fill:url(#linear-gradient-2);}.cls-5{opacity:0.4;fill:url(#linear-gradient-3);}.cls-6{opacity:0.25;fill:url(#linear-gradient-4);}</style><linearGradient id="linear-gradient" x1="-6.67" y1="-660.91" x2="-6.67" y2="-650.28" gradientTransform="translate(21.6 1192.49) scale(1.8)" gradientUnits="userSpaceOnUse"><stop offset="0" stop-opacity="0.6"/><stop offset="0.6" stop-opacity="0.1"/></linearGradient><linearGradient id="linear-gradient-2" x1="-3.99" y1="-650.33" x2="-3.99" y2="-660.95" xlink:href="#linear-gradient"/><linearGradient id="linear-gradient-3" x1="-8.03" y1="-654.61" x2="-6.22" y2="-648.79" gradientTransform="translate(21.6 1192.49) scale(1.8)" gradientUnits="userSpaceOnUse"><stop offset="0" stop-opacity="0.5"/><stop offset="0.75" stop-opacity="0.03"/></linearGradient><linearGradient id="linear-gradient-4" x1="-9.11" y1="-656.94" x2="-3.88" y2="-656.94" gradientTransform="translate(21.6 1192.49) scale(1.8)" gradientUnits="userSpaceOnUse"><stop offset="0" stop-opacity="0.9"/><stop offset="0.6" stop-opacity="0.1"/></linearGradient></defs><title>doubleclick</title><path class="cls-1" d="M14.37,2.79A8.82,8.82,0,0,0,12,3.1a9.6,9.6,0,0,1,7.2,9.1v0.37a4.84,4.84,0,0,1-4.81,4.63A4.62,4.62,0,0,1,12,16.56a4.77,4.77,0,0,1-2.4-4.17A4.86,4.86,0,0,1,12,8.21a4.66,4.66,0,0,0-2.39-.64A4.78,4.78,0,0,0,4.8,12.2v0.37a9.59,9.59,0,1,0,9.57-9.79h0Z" transform="translate(0 -2.79)"/><path class="cls-2" d="M19.19,12.2A9.59,9.59,0,1,0,9.59,22,8.82,8.82,0,0,0,12,21.66a9.58,9.58,0,0,1-7.17-9.1V12.19A4.81,4.81,0,0,1,9.59,7.56,4.62,4.62,0,0,1,12,8.2a4.76,4.76,0,0,1,2.39,4.17A4.86,4.86,0,0,1,12,16.54a5.11,5.11,0,0,0,2.41.64,4.8,4.8,0,0,0,4.8-4.63V12.38A1.72,1.72,0,0,0,19.19,12.2Z" transform="translate(0 -2.79)"/><path class="cls-3" d="M19.19,12.21A9.59,9.59,0,1,0,9.59,22,8.82,8.82,0,0,0,12,21.67a9.58,9.58,0,0,1-7.17-9.1V12.2A4.81,4.81,0,0,1,9.59,7.57,4.62,4.62,0,0,1,12,8.21a4.76,4.76,0,0,1,2.39,4.17A4.86,4.86,0,0,1,12,16.56a5.11,5.11,0,0,0,2.41.64,4.78,4.78,0,0,0,4.79-4.63V12.39A0.64,0.64,0,0,0,19.19,12.21Z" transform="translate(0 -2.79)"/><path class="cls-4" d="M14.4,2.8A8.82,8.82,0,0,0,12,3.11a9.6,9.6,0,0,1,7.2,9.1v0.37a4.84,4.84,0,0,1-4.81,4.63A4.62,4.62,0,0,1,12,16.57a4.77,4.77,0,0,1-2.4-4.17A4.86,4.86,0,0,1,12,8.23a4.66,4.66,0,0,0-2.39-.64,4.78,4.78,0,0,0-4.79,4.63v0.37A9.59,9.59,0,1,0,14.4,2.8h0Z" transform="translate(0 -2.79)"/><path class="cls-5" d="M12,21.67a9.58,9.58,0,0,1-7.17-9.1v0A14,14,0,0,0,8.29,21.9,10.17,10.17,0,0,0,9.6,22,10.8,10.8,0,0,0,12,21.67Z" transform="translate(0 -2.79)"/><path class="cls-6" d="M4.86,12.23A4.76,4.76,0,0,1,10.7,9L11,9.09A5,5,0,0,1,12,8.24,4.66,4.66,0,0,0,9.63,7.6a4.76,4.76,0,0,0-4.77,4.63v0.16A0.15,0.15,0,0,1,4.86,12.23Z" transform="translate(0 -2.79)"/></svg>
